<?xml version="1.0" encoding="utf-8"?>
<svg version="1.1" id="Layer_1" x="0px" y="0px" width="100%" viewBox="153.985 282.306 721.163 459.388" enable-background="new 0 0 1024 1024" xmlns="http://www.w3.org/2000/svg">
  <path fill="#0458A1" opacity="1.000000" stroke="none" d=" M331.106995,690.844727 C342.186523,696.705627 353.669617,699.665161 365.873169,699.892822 C365.739258,702.127380 364.216736,702.030579 363.018585,702.250671 C335.710205,707.268433 311.021881,701.273743 289.559784,683.715637 C271.326233,668.798828 260.700958,649.351807 259.089142,625.706116 C258.027069,610.125610 262.332672,595.359924 268.781921,581.277588 C278.742035,559.528931 293.374664,540.998352 309.098541,523.223816 C338.395050,490.106567 372.948029,462.877472 407.272827,435.387177 C410.002716,433.200836 412.711182,430.987701 415.428375,428.785492 C416.781982,427.688446 418.302429,426.504089 419.643463,428.540375 C423.638519,434.606720 429.027527,439.247925 434.722748,443.262390 C434.576660,445.983307 432.638214,447.012817 431.289825,448.376007 C408.685577,471.228668 385.040955,493.049805 363.218628,516.674744 C341.618256,540.059509 320.458954,563.812012 305.299896,592.155212 C298.651215,604.586304 293.727814,617.546448 293.259064,632.075684 C289.516907,628.536499 288.403656,622.387207 287.419434,601.122375 C280.064514,629.833130 292.707764,671.506958 331.106995,690.844727 z"/>
  <path fill="#0458A1" opacity="1.000000" stroke="none" d=" M497.215576,326.169647 C517.150391,312.289795 538.616089,303.108643 562.834045,298.953400 C562.919556,305.174652 561.137512,310.341675 559.695435,315.514618 C552.058167,342.911987 537.956848,366.538879 517.787415,386.548553 C515.926514,388.394745 514.560974,390.357544 514.354675,392.977753 C512.927856,411.099060 503.907379,425.339417 491.379791,437.733337 C477.700470,451.266693 463.276093,463.806396 445.092285,471.101685 C441.983307,472.348938 441.961395,472.294312 437.822205,471.949463 C442.004150,461.445953 447.535583,451.553925 449.814972,439.320496 C440.352203,444.579590 434.537750,438.965332 429.274048,433.530731 C424.071838,428.159576 417.495026,422.697784 422.991730,412.934204 C416.405182,413.009369 411.399963,415.658630 406.272095,417.632507 C401.036530,419.647736 395.936127,422.014130 390.612701,424.297028 C388.921448,420.526642 390.767944,417.689331 391.912750,414.918121 C396.707184,403.311829 405.436615,394.860321 414.847839,387.025360 C420.696136,382.156525 427.226776,378.241394 433.394012,373.661896 C428.229767,375.710663 423.065491,377.759430 417.875275,379.818481 C416.941925,377.807892 418.382446,377.053436 419.188019,376.191620 C426.382599,368.494843 434.320770,361.703705 443.159424,355.903809 C451.115997,350.682739 460.282166,349.711670 469.197906,347.878662 C471.991699,347.304321 474.129578,346.181061 476.043335,344.202240 C482.431915,337.596527 489.432709,331.698669 497.215576,326.169647 M526.974731,362.494446 C528.777527,359.566315 530.580322,356.638184 532.383057,353.710052 C528.333252,357.379181 524.657776,361.319580 519.710938,363.834991 C523.851013,357.322327 528.488159,351.277832 532.053711,344.544861 C535.674377,337.707733 539.187439,330.821991 540.483521,322.877045 C533.684692,329.073364 527.267761,335.558411 520.969055,342.156372 C518.655457,344.579803 516.593689,345.658569 513.260071,343.603973 C509.191956,341.096741 505.147614,342.404572 501.767487,345.360321 C498.462067,348.250763 496.715302,352.654327 498.779694,356.169617 C502.019562,361.686554 498.971527,364.255463 495.636780,367.344269 C493.683319,369.153656 491.702606,370.975281 490.021790,373.027039 C487.800507,375.738495 485.958435,376.439484 482.566284,374.266083 C476.495972,370.376709 468.069550,371.741730 463.239624,376.622162 C458.050873,381.865173 457.043243,389.758301 461.271637,396.276855 C463.072723,399.053467 462.586243,400.624756 460.391998,402.592041 C455.777771,406.729065 451.302063,411.020630 446.769501,415.248779 C447.101410,415.615845 447.433319,415.982910 447.765228,416.349976 C454.072449,413.537048 460.379669,410.724152 466.686920,407.911224 C467.026276,408.209839 467.365631,408.508453 467.704987,408.807037 C463.102173,412.045380 464.179047,415.412109 466.513611,419.106598 C467.537231,420.726532 467.962982,422.837189 468.251526,424.785553 C468.883362,429.051483 469.456360,433.385223 467.341309,436.844421 C465.001099,437.249512 466.443115,435.156799 464.723785,435.105591 C463.898102,440.361908 461.297394,445.058258 459.081879,450.537079 C472.021942,444.137848 486.303589,430.977783 489.973175,422.345581 C486.417023,424.946136 483.593445,428.552460 479.061432,429.719818 C478.627869,427.904114 479.822510,427.295715 480.569855,426.510010 C489.986115,416.610687 497.047668,405.189514 502.286499,392.633362 C503.471863,389.792267 505.014648,387.384613 507.238159,385.272949 C514.379028,378.491364 520.977539,371.222809 526.974731,362.494446 z"/>
  <path fill="#0458A1" opacity="1.000000" stroke="none" d=" M522.058899,578.041992 C520.653381,586.146484 521.328735,593.975525 521.336975,601.779175 C521.341248,605.770325 520.208679,607.675598 515.939270,607.360535 C512.293701,607.091492 508.601379,607.086914 504.952606,607.321228 C500.298676,607.620056 498.818909,605.466064 498.863708,601.084534 C498.993073,588.426453 498.876099,575.766052 498.876007,563.106567 C498.875854,546.615845 498.991943,530.124268 498.839722,513.635071 C498.800262,509.363739 500.181763,507.650421 504.598450,507.808380 C519.399780,508.337677 534.245728,506.953918 549.021118,508.659912 C566.353516,510.661163 578.523315,521.871887 580.691711,538.764221 C582.348022,551.667419 577.503540,562.248535 566.745667,569.867126 C565.151550,570.996094 563.437622,571.955933 561.239807,573.331604 C569.911560,584.395020 578.274719,595.064636 586.908569,606.079590 C582.743164,608.208313 578.876648,606.747070 575.257812,607.334045 C565.358093,608.939575 558.088684,605.770447 552.890564,596.815918 C549.830261,591.544067 545.020020,587.316589 541.612671,582.208679 C538.844849,578.059570 535.511353,576.448303 530.735413,577.030396 C527.953613,577.369446 525.071472,576.590759 522.058899,578.041992 M541.983887,556.611633 C543.128174,556.413940 544.279724,556.250793 545.415649,556.013062 C554.270569,554.160095 558.876099,549.580566 558.964966,542.562683 C559.053345,535.571228 554.463440,530.409241 545.753967,528.818054 C538.547302,527.501404 531.171997,528.393738 523.871277,528.406189 C521.615967,528.410034 521.297607,530.094116 521.296143,531.893799 C521.290527,538.874451 521.336853,545.855835 521.251282,552.835510 C521.217468,555.595093 522.361572,556.726685 525.120789,556.674683 C530.437500,556.574463 535.757446,556.645569 541.983887,556.611633 z"/>
  <path fill="#0458A1" opacity="1.000000" stroke="none" d=" M203.024109,587.086365 C214.845413,587.065491 226.173264,587.143738 237.497330,586.972412 C241.594009,586.910400 243.127533,588.473633 243.012894,592.573914 C242.513077,610.451721 245.049896,607.085999 228.679688,607.274658 C210.693146,607.482056 192.700836,607.189819 174.714325,607.397949 C170.128998,607.451050 168.681244,605.979736 168.708252,601.389954 C168.879776,572.242126 168.895920,543.092224 168.708466,513.944641 C168.676620,508.993896 170.494278,507.737518 175.133926,507.779541 C195.619614,507.965118 216.108017,507.836487 236.595398,507.858978 C242.691010,507.865692 242.948624,508.191956 242.915771,514.481628 C242.843750,528.268982 242.843750,528.268860 229.249451,528.266296 C218.256195,528.264160 207.260223,528.401123 196.271103,528.186707 C192.295822,528.109253 190.856598,529.525574 191.139374,533.402100 C191.369019,536.549988 191.369522,539.741516 191.139603,542.889343 C190.851517,546.833374 192.512527,548.184814 196.361603,548.130920 C207.685913,547.972229 219.013687,548.025085 230.339935,548.057861 C236.787750,548.076538 237.004883,548.353271 237.037537,554.873291 C237.104919,568.321533 237.104919,568.321045 223.611237,568.318848 C214.283630,568.317261 204.954926,568.398499 195.629028,568.271729 C192.466995,568.228760 190.897888,569.289856 191.174469,572.580322 C191.257858,573.572571 191.166367,574.578247 191.184326,575.577271 C191.414291,588.365845 189.258133,587.028564 203.024109,587.086365 z"/>
  <path fill="#0458A1" opacity="1.000000" stroke="none" d=" M642.000732,587.116699 C650.160522,587.099731 657.822388,587.176025 665.479675,587.023987 C669.341125,586.947266 671.173950,588.099365 671.225708,592.409363 C671.404480,607.312561 671.541504,607.310181 656.645081,607.306458 C638.827148,607.302063 621.007385,607.161072 603.192383,607.386963 C598.418640,607.447510 596.821350,605.946106 596.851440,601.131531 C597.031738,572.324219 596.939453,543.515259 596.975830,514.706848 C596.984253,508.043762 597.131165,507.919159 603.626953,507.911804 C623.942688,507.888824 644.258484,507.882233 664.574219,507.911011 C670.796082,507.919830 671.083313,508.267609 671.098511,514.400208 C671.132812,528.266418 671.132751,528.266724 657.028992,528.262939 C646.371521,528.260010 635.707397,528.475708 625.059631,528.152527 C620.315308,528.008545 618.823547,529.715881 619.246033,534.202271 C619.541321,537.338074 619.468689,540.536743 619.247192,543.685364 C619.004456,547.135925 620.185608,548.299072 623.776428,548.224792 C635.428345,547.983521 647.091370,548.269531 658.742798,548.015930 C663.675537,547.908569 665.410950,549.509460 665.310669,554.621704 C665.041992,568.317383 665.262756,568.321350 651.557434,568.317810 C642.565186,568.315491 633.567505,568.499695 624.583191,568.231812 C620.352478,568.105591 618.911865,569.653015 619.254761,573.718506 C619.505737,576.694397 619.442078,579.718201 619.255188,582.704102 C619.032471,586.262329 619.983582,587.771667 624.032288,587.410339 C629.817810,586.894165 635.674561,587.175110 642.000732,587.116699 z"/>
  <path fill="#0458A1" opacity="1.000000" stroke="none" d=" M757.479248,596.415527 C743.350403,613.710449 707.051575,613.123901 691.629456,597.813110 C686.112854,592.336304 682.945984,585.770569 681.435242,578.208008 C680.750793,574.782043 681.885498,573.617859 685.195557,573.701355 C689.689514,573.814697 694.189148,573.770569 698.685181,573.708618 C701.081787,573.675598 702.487488,574.349670 703.517395,576.902222 C708.247681,588.626465 726.350037,594.134338 737.110535,587.341980 C742.784180,583.760620 742.373657,575.966858 736.229004,572.720886 C730.830261,569.868958 724.723145,569.559814 718.878052,568.389404 C714.147156,567.442017 709.396362,566.640442 704.820679,565.062134 C693.365845,561.111023 686.225098,553.354553 685.078369,541.144043 C683.989502,529.549622 688.076172,519.853943 697.765137,512.964844 C712.776855,502.291046 740.725830,504.078705 754.367981,516.463806 C759.935730,521.518494 762.573181,528.048889 764.006592,535.212585 C764.556396,537.960266 763.491760,539.317139 760.622131,539.290039 C755.792725,539.244446 750.961060,539.201721 746.133484,539.306091 C743.611328,539.360657 742.762634,537.840820 741.929688,535.857117 C737.406677,525.085876 721.439880,521.076233 712.103882,528.307739 C706.367493,532.751038 707.143372,540.967590 713.743530,544.293457 C720.392639,547.643921 727.882874,547.878662 734.962952,549.641541 C738.840881,550.607056 742.729004,551.483704 746.423279,553.049683 C764.778564,560.830505 769.824524,580.065430 757.479248,596.415527 z"/>
  <path fill="#0458A1" opacity="1.000000" stroke="none" d=" M832.164551,508.524719 C844.402771,512.559204 852.879089,519.747192 855.805725,532.422485 C857.156189,538.271484 856.486938,539.238403 850.579590,539.293945 C848.914429,539.309570 847.236389,539.161011 845.586060,539.317810 C839.685547,539.878540 835.469421,539.244263 832.557068,532.355530 C828.729614,523.301819 809.593933,522.150452 803.172363,529.688354 C798.712036,534.924133 800.113586,541.582520 806.474060,544.530090 C813.046997,547.576050 820.332092,547.911438 827.261963,549.612244 C831.631348,550.684631 835.907166,551.952148 840.109009,553.593994 C862.570801,562.370667 859.187073,590.134583 846.030640,600.402039 C830.440369,612.568848 801.435608,612.317078 786.167297,599.683533 C779.608765,594.256714 775.709717,587.342346 773.985535,579.044312 C773.154236,575.043213 774.494324,573.408997 778.547546,573.707825 C780.700317,573.866516 782.889648,573.886719 785.037109,573.690613 C790.779846,573.166138 794.822510,573.819580 797.849426,580.378601 C802.300964,590.024597 821.279358,593.273865 829.963745,587.060974 C835.650085,582.993042 834.678772,575.167847 827.916687,572.294495 C821.127808,569.409668 813.664734,569.155518 806.570435,567.422119 C804.795898,566.988464 802.977478,566.731628 801.207214,566.283386 C785.836487,562.390991 777.714844,552.919922 777.630981,538.831299 C777.537231,523.078186 786.150330,511.809235 801.273315,507.739075 C811.525024,504.979950 821.672485,505.400177 832.164551,508.524719 z"/>
  <path fill="#0458A1" opacity="1.000000" stroke="none" d=" M484.108704,561.923889 C476.229645,574.130615 464.778076,579.270691 451.140167,580.247192 C446.669434,580.567200 442.132660,580.614197 437.671234,580.243347 C432.639160,579.824890 431.211212,582.138428 431.351959,586.668762 C431.522339,592.154785 431.298340,597.651978 431.404022,603.141357 C431.460297,606.065430 430.389496,607.437378 427.340668,607.334473 C423.517700,607.205261 419.664032,607.044800 415.865295,607.375916 C411.112762,607.790222 409.535553,606.104553 409.572876,601.233887 C409.778198,574.443481 409.669739,547.650757 409.672638,520.858826 C409.673004,517.697266 409.729340,514.535400 409.697693,511.374237 C409.675018,509.108124 410.762177,507.862732 412.988068,507.933228 C428.910492,508.437256 444.942657,506.202942 460.748840,509.522156 C488.717529,515.395447 493.989929,543.162659 484.108704,561.923889 M431.364990,553.307312 C432.019226,555.854614 429.536316,560.110596 434.332123,560.436157 C441.110504,560.896240 447.990448,561.262634 454.673340,559.435303 C462.188202,557.380310 466.746368,551.321899 466.772278,543.660400 C466.796875,536.387329 462.690704,531.528931 454.761871,529.242126 C448.866394,527.541748 442.845978,528.740723 436.907013,528.264099 C432.636353,527.921387 431.324188,530.024658 431.378387,533.889404 C431.464630,540.042114 431.375031,546.197266 431.364990,553.307312 z"/>
  <path fill="#0458A1" opacity="1.000000" stroke="none" d=" M301.885162,720.331726 C256.803406,702.287537 240.606705,654.129456 251.808243,619.687866 C253.797562,653.562683 267.518280,681.057129 296.480072,699.187927 C325.386292,717.283875 355.944458,718.347351 387.749390,704.112549 C376.820068,718.373596 338.734253,735.112671 301.885162,720.331726 z"/>
  <path fill="#7BC925" opacity="1.000000" stroke="none" d=" M327.282379,572.326416 C331.819397,566.543823 336.179260,561.077576 340.449707,555.542297 C341.938202,553.612976 343.375824,552.899353 345.336182,554.868164 C365.426605,575.045166 385.526672,595.212585 405.603455,615.403137 C405.912842,615.714355 405.961090,616.285278 406.343842,617.296936 C389.490479,619.154846 373.652252,618.744873 360.850647,605.673706 C353.626892,598.297852 346.004700,591.298584 339.018677,583.709229 C335.411163,579.790161 333.183228,580.386963 329.852966,583.854492 C323.154907,590.828796 316.538757,597.835693 311.002502,605.795898 C310.377655,606.694275 309.955505,607.941162 307.809265,607.846680 C312.493835,594.957886 319.178009,583.468384 327.282379,572.326416 z"/>
  <path fill="#7BC925" opacity="1.000000" stroke="none" d=" M283.728943,538.701904 C278.885681,545.564758 274.259521,552.143616 269.633362,558.722412 C269.254486,553.054321 271.458130,548.264954 273.240173,543.411804 C274.958282,538.732666 276.974030,534.134521 279.238770,529.694519 C280.707672,526.814636 280.249298,524.951416 277.994537,522.746094 C269.302856,514.244873 260.767487,505.583435 252.212662,496.943298 C250.968292,495.686523 249.235199,494.754028 248.822571,492.070648 C263.325073,491.290985 277.760254,489.608063 289.900513,500.140289 C294.046143,503.736816 297.895752,507.674072 301.890228,511.445465 C303.856689,513.302124 303.798553,514.982910 301.890717,516.978699 C295.440369,523.726196 289.696716,531.077698 283.728943,538.701904 z"/>
  <path fill="#0458A1" opacity="1.000000" stroke="none" d=" M486.344940,391.055237 C483.122192,398.199463 477.691345,401.335297 471.718414,399.837128 C465.681061,398.322815 461.707977,392.946838 462.185760,386.938477 C462.786011,379.390259 468.383179,374.949005 476.334076,375.712036 C483.272156,376.377869 487.534637,382.696808 486.344940,391.055237 z"/>
  <path fill="#0458A1" opacity="1.000000" stroke="none" d=" M516.235840,353.030640 C515.828735,357.069427 514.228699,359.770203 510.336517,360.347260 C507.386047,360.784698 504.670654,360.157501 502.926270,357.458557 C501.133972,354.685516 501.202576,351.810089 502.999237,349.064178 C504.596405,346.623169 507.050720,345.480530 509.832977,345.981995 C513.397949,346.624481 515.684875,348.883514 516.235840,353.030640 z"/>
</svg>