<?xml version="1.0" encoding="utf-8"?>
<!-- Generator: Adobe Illustrator 19.2.1, SVG Export Plug-In . SVG Version: 6.00 Build 0)  -->
<svg version="1.1" id="Ebene_1" xmlns="http://www.w3.org/2000/svg" xmlns:xlink="http://www.w3.org/1999/xlink" x="0px" y="0px"
	 viewBox="0 0 50 50" style="enable-background:new 0 0 50 50;" xml:space="preserve">
<style type="text/css">
	.st0{fill:#0458a1;}
</style>
<path class="st0" d="M47.8,32.7c0.2-0.5,0.1-0.7-0.4-0.7h-45C2.2,32,2,32.1,2,32.5v3.1l2.7,4.9h38.9L47.8,32.7L47.8,32.7z M11.9,9.5
	c-0.4,0-0.6,0.1-0.8,0.2s-0.4,0.4-0.4,0.6v11.9H2.2v7.7h16.3V23l-2.2-5.4h-2.9v-7.3c0-0.2-0.1-0.5-0.4-0.6
	C12.5,9.6,12.2,9.5,11.9,9.5L11.9,9.5z M12.7,20.8H15l1.1,2.6h-3.3V20.8L12.7,20.8z M20.8,25.6c-0.4,0-0.5,0.1-0.5,0.5v3.2
	c0,0.4,0.1,0.5,0.5,0.5h6.8c0.4,0,0.5-0.1,0.5-0.5v-3.2c0-0.4-0.1-0.5-0.5-0.5H20.8L20.8,25.6z M28.3,20c0-0.4-0.1-0.5-0.5-0.5H21
	c-0.4,0-0.5,0.1-0.5,0.5v3.2c0,0.4,0.1,0.5,0.5,0.5h6.8c0.4,0,0.5-0.1,0.5-0.5V20L28.3,20z M20.8,13.3c-0.4,0-0.5,0.1-0.5,0.5v3.2
	c0,0.4,0.1,0.5,0.5,0.5h6.8c0.4,0,0.5-0.1,0.5-0.5v-3.1c0-0.4-0.1-0.5-0.5-0.5h-6.8V13.3z M40.6,25.6c-0.4,0-0.5,0.1-0.5,0.5v3.2
	c0,0.4,0.1,0.5,0.5,0.5h6.8c0.4,0,0.5-0.1,0.5-0.5v-3.2c0-0.4-0.1-0.5-0.5-0.5H40.6L40.6,25.6z M38,26.2c0-0.4-0.1-0.5-0.5-0.5h-6.8
	c-0.4,0-0.5,0.1-0.5,0.5v3.2c0,0.4,0.1,0.5,0.5,0.5h6.8c0.4,0,0.5-0.1,0.5-0.5V26.2L38,26.2z M40.6,19.5c-0.4,0-0.5,0.1-0.5,0.5v3.2
	c0,0.4,0.1,0.5,0.5,0.5h6.8c0.4,0,0.5-0.1,0.5-0.5V20c0-0.4-0.1-0.5-0.5-0.5H40.6L40.6,19.5z M38,20c0-0.4-0.1-0.5-0.5-0.5h-6.8
	c-0.4,0-0.5,0.1-0.5,0.5v3.2c0,0.4,0.1,0.5,0.5,0.5h6.8c0.4,0,0.5-0.1,0.5-0.5V20L38,20z M38,13.9c0-0.4-0.1-0.5-0.5-0.5h-6.8
	c-0.4,0-0.5,0.1-0.5,0.5V17c0,0.4,0.1,0.5,0.5,0.5h6.8c0.4,0,0.5-0.1,0.5-0.5V13.9L38,13.9z M47.9,13.9c0-0.4-0.1-0.5-0.5-0.5h-6.8
	c-0.4,0-0.5,0.1-0.5,0.5V17c0,0.4,0.1,0.5,0.5,0.5h6.8c0.4,0,0.5-0.1,0.5-0.5V13.9L47.9,13.9z"/>
</svg>
