<?xml version="1.0" encoding="utf-8"?>
<!-- Generator: Adobe Illustrator 19.2.1, SVG Export Plug-In . SVG Version: 6.00 Build 0)  -->
<svg version="1.1" id="Ebene_1" xmlns="http://www.w3.org/2000/svg" xmlns:xlink="http://www.w3.org/1999/xlink" x="0px" y="0px"
	 viewBox="0 0 65 50" style="enable-background:new 0 0 65 50;" xml:space="preserve">
<style type="text/css">
	.st0{fill:#0458a1;}
</style>
<path class="st0" d="M22.7,32.8c1.8,0,3.3-1.4,3.3-3.2h-6.5C19.4,31.4,20.9,32.8,22.7,32.8z M0.2,32.8c1.8,0,3.3-1.4,3.3-3.2H0.2
	V32.8z M37.5,32.8c1.8,0,3.3-1.4,3.3-3.2h-6.5C34.3,31.4,35.7,32.8,37.5,32.8z M60.9,37.6v1.8H0v-1.8v-1.8h60.9V37.6z M30.1,32.8
	c1.8,0,3.3-1.4,3.3-3.2h-6.5C26.8,31.4,28.3,32.8,30.1,32.8z M51.7,26.1c-0.2,0-0.3,0.1-0.3,0.3h-1.6l0.8-3c0,0,0-3.4,0-3.6
	c0-0.2-1.4-0.6-1.4-0.6l-1.4-4c0,0,0.5-1.1-1.3-2c-5-2.6-10.3-2.8-10.3-2.8H0.2v18.4h5.1v2c0,0.5,0.4,0.9,0.9,0.9h10.6
	c0.5,0,0.9-0.4,0.9-0.9v-2h23.1l3.6,3.1H50c0.1-1.1-0.3-3.6-0.3-3.6v-0.2h1.8v0c0,0.1,0.1,0.3,0.3,0.3c0.2,0,0.3-0.2,0.3-0.3v-1.8
	C52,26.2,51.9,26.1,51.7,26.1z M48,18.6c0,0.2-0.2,0.2-0.3,0.2l-3.9-0.9c-0.2,0-0.3-0.2-0.3-0.4v-1.7c0-0.2,0.1-0.3,0.3-0.3h2.9
	c0.1,0,0.2,0,0.3,0.1c0,0,0,0,0.1,0.2c0,0.1,0.9,2.3,0.9,2.3C48,18.3,48,18.4,48,18.6z M40,21.5c0,0.2-0.1,0.3-0.3,0.3h-1.5
	c-0.2,0-0.3-0.1-0.3-0.3v-5c0-0.2,0.2-0.3,0.3-0.3h1.5c0.2,0,0.3,0.1,0.3,0.3V21.5z"/>
</svg>
