<?xml version="1.0" encoding="utf-8"?>
<!-- Generator: Adobe Illustrator 19.2.1, SVG Export Plug-In . SVG Version: 6.00 Build 0)  -->
<svg version="1.1" id="Ebene_1" xmlns="http://www.w3.org/2000/svg" xmlns:xlink="http://www.w3.org/1999/xlink" x="0px" y="0px"
	 viewBox="0 0 65 50" style="enable-background:new 0 0 65 50;" xml:space="preserve">
<style type="text/css">
	.st0{fill:#0458a1;}
</style>
<path class="st0" d="M21.5,36.3c0,1.1,0.3,1.8,1.1,2.6c0.8,0.8,1.5,1.1,2.6,1.1c1.1,0,1.8-0.3,2.6-1.1c0.8-0.8,1.1-1.5,1.1-2.6
	s-0.3-1.8-1.1-2.6c-0.8-0.8-1.5-1.1-2.6-1.1c-1.1,0-1.8,0.3-2.6,1.1C21.8,34.5,21.5,35.4,21.5,36.3L21.5,36.3z M14.1,38.8
	c0.8-0.8,1.1-1.5,1.1-2.6s-0.3-1.8-1.1-2.6c-0.8-0.8-1.5-1.1-2.6-1.1S9.7,32.9,9,33.7c-0.8,0.8-1.1,1.5-1.1,2.6s0.3,1.8,1.1,2.6
	c0.8,0.8,1.5,1.1,2.6,1.1S13.5,39.6,14.1,38.8L14.1,38.8z M56.8,38.8c0.8-0.8,1.1-1.5,1.1-2.6s-0.3-1.8-1.1-2.6
	c-0.8-0.8-1.5-1.1-2.6-1.1s-1.8,0.3-2.6,1.1c-0.8,0.8-1.1,1.5-1.1,2.6s0.3,1.8,1.1,2.6c0.8,0.8,1.5,1.1,2.6,1.1
	C55.1,39.9,56,39.6,56.8,38.8L56.8,38.8z M57.4,15.4c-0.3-0.8-0.9-1.2-1.8-1.2h-8.2v-2.4c0-0.9-0.5-1.4-1.4-1.4h-7.1H24.4H4.3
	c-0.9,0-1.4,0.5-1.4,1.4v21.5c0,0.9,0.5,1.4,1.4,1.4h1.5c0.3-1.1,0.8-2.1,1.7-2.9c1.2-1.2,2.6-1.7,4.1-1.7c1.7,0,3,0.6,4.1,1.7
	c0.9,0.9,1.4,1.8,1.7,2.9h2.1c0.3-1.1,0.8-2.1,1.7-2.9c1.2-1.2,2.6-1.7,4.1-1.7c1.7,0,3,0.6,4.1,1.7c0.9,0.9,1.4,1.8,1.7,2.9h17.7
	l0,0c0.3-1.1,0.8-2.1,1.7-2.9c1.2-1.2,2.6-1.7,4.1-1.7h0.2l0,0l0,0c1.5,0,2.9,0.6,3.9,1.7c0.8,0.8,1.4,1.8,1.5,2.9h0.2h0.5
	c0.9,0,1.4-0.5,1.4-1.4V27l-0.5-2L57.4,15.4L57.4,15.4z M55.1,17.1c0.6,0,0.9,0.5,1.2,1.1l2.1,5.7c0.3,0.8,0,1.1-1.1,1.1h-7.9
	c-0.8,0-1.1-0.3-1.1-1.1v-5.7c0-0.8,0.3-1.1,1.1-1.1H55.1L55.1,17.1z"/>
</svg>
